<svg id="_1" data-name="1" xmlns="http://www.w3.org/2000/svg" viewBox="0 0 159.6 167.4"><defs><style>.cls-1{fill:#fff;fill-rule:evenodd;}</style></defs><title>Logo white-01</title><path class="cls-1" d="M77.12,56.67c-5.87-1.62-2.25-11,6.43-11.74C90.31,41,90.45,41.61,94.73,40c-4.49,1.64-8.91,3.83-9.93,5.84C84.9,48.76,83.24,56.32,77.12,56.67Z"/><path class="cls-1" d="M77,57.48c-5.55,2.51-.51,11.22,8.17,10.6,7.28,2.83,7.33,2.21,11.81,3.14-4.69-.93-9.4-2.4-10.72-4.23C85.95,64.1,83.14,56.88,77,57.48Z"/><path class="cls-1" d="M87.25,55.89c-5.87-1.62-2.25-11,6.43-11.74a71.12,71.12,0,0,1,13.92-6.36C103.11,39.42,96,43,94.93,45.06,95,48,93.37,55.53,87.25,55.89Z"/><path class="cls-1" d="M86.89,56.9c-5.13,3.28,1.1,11.18,9.6,9.33a71.08,71.08,0,0,0,15.17,2C106.89,68,99,66.61,97.41,65,96.65,62.17,92.84,55.43,86.89,56.9Z"/><path class="cls-1" d="M97.06,54.7c-5.6-1.55-2.14-10.51,6.14-11.21,6.45-3.75,12.21-7.6,16.29-9.14-4.28,1.57-14.13,8.09-15.1,10C104.49,47.15,102.91,54.37,97.06,54.7Z"/><path class="cls-1" d="M96.82,55.61c-4.58,3.59,2.07,10.53,10,8,7.39,1,14.57-.41,18.94-.56-4.56.2-16.53.7-18.17-.7C106.58,59.73,102.35,53.67,96.82,55.61Z"/><path class="cls-1" d="M107.18,52.89c-5.1-1-2.57-9.24,4.77-10.38,5.52-3.75,9-6.43,12.55-8.06-3.72,1.67-10.69,7-11.43,8.77C113.33,45.68,112.38,52.22,107.18,52.89Z"/><path class="cls-1" d="M106.81,54c-3.62,3.73,3.1,9.08,9.81,5.87,6.67,0,12.88-2.28,16.74-2.94-4,.73-14.59,2.77-16.21,1.73C116,56.51,111.47,51.65,106.81,54Z"/><path class="cls-1" d="M115.94,50.29c-4.54-.92-2.29-8.23,4.25-9.25,4.41-4.21,14.58-7.74,18.71-7.39-6.33-.35-17,6.43-17.71,8C121.41,43.87,120.56,49.7,115.94,50.29Z"/><path class="cls-1" d="M115.64,51.85c-2.52,3.88,4.27,7.4,9.58,3.44,20.86-6.32,16.35-13,19.45-14.76-3.23,2.09-.16,8.8-19.2,13.61C124.06,52.44,119.31,49,115.64,51.85Z"/><path class="cls-1" d="M121.86,49.21c-.47-1.51-.14-3.65,3-5.29a12.51,12.51,0,0,1,7.67-.07c-1.2,3.88-2.13,5.06-4,6C126.95,50.54,123.55,51.76,121.86,49.21Z"/><path class="cls-1" d="M69.61,68.37a53,53,0,0,1,46,26.7l-.15-.2-.5-.69-.18-.25-.61-.79-.21-.27-.53-.66-.24-.29-.56-.67-.22-.26-.65-.73-.23-.25-.55-.59-.21-.22-.69-.71-.23-.23-.72-.7-.22-.21-.6-.56-.22-.2-.75-.67-.25-.21-.78-.66-.16-.13-.71-.57-.21-.17-.8-.62-.26-.2-.76-.56-.21-.15-.76-.52L102.2,82l-.86-.57-.21-.14-.81-.5-.16-.1-.9-.53L99,80l-.92-.51-.19-.1L97,78.92l-.16-.08-.94-.47-.27-.13-1-.45-.19-.08-.87-.38-.23-.1-1-.4-.24-.09-1-.39-.1,0-1-.34-.23-.08-1-.34-.2-.06-1-.31-.09,0-1.07-.29-.26-.07-1.07-.26-.19,0-1-.22-.14,0L82.62,74l-.26,0-1.12-.18-.14,0L80,73.62l-.2,0-1.12-.13-.24,0-1.16-.1h-.1l-1.1-.07h-.23l-1.15,0h-.22l-1.21,0a51.88,51.88,0,0,0-51.87,51.87c0,.4,0,.81,0,1.21v.22c0,.38,0,.77,0,1.15v.23c0,.37,0,.73.07,1.1v.1c0,.39.07.78.1,1.16l0,.24q.06.56.13,1.12l0,.2q.07.53.15,1.06l0,.14q.09.56.18,1.12l0,.26q.1.55.21,1.1l0,.14q.11.52.22,1l0,.19q.12.54.26,1.07l.07.26q.14.54.29,1.07l0,.09q.15.52.31,1l.06.2q.16.52.34,1l.08.23q.17.49.34,1l0,.1q.19.52.39,1l.09.24q.2.49.4,1l.1.23.38.87.08.19.45,1,.13.27.47.94.08.16.46.87.1.19.51.92.15.26.53.9.1.16.5.81.14.21.57.86.18.26.52.76.15.21.56.76.2.26.62.8.17.21.57.71.13.16.66.78.21.25.67.75.2.22.56.6.21.22.7.72.23.23.71.69.22.21.59.55.25.23.73.65.26.22.67.56.29.24.66.53.27.21.79.61.25.18.69.5.2.15a53,53,0,0,1,26.3-99Z"/><path class="cls-1" d="M53.3,108.2v-5.27a3.39,3.39,0,0,0-.06-.71.8.8,0,0,0-.28-.46,1.42,1.42,0,0,0-.64-.28,8.63,8.63,0,0,0-1.16-.12l0-.64h6.22l0,.6a5.83,5.83,0,0,0-1.1.17,1.4,1.4,0,0,0-.64.35,1.26,1.26,0,0,0-.31.66,6.5,6.5,0,0,0-.08,1.07V115.4a2.88,2.88,0,0,0,.07.7.91.91,0,0,0,.29.47,1.55,1.55,0,0,0,.66.27,8.08,8.08,0,0,0,1.18.13l0,.63H51.26l0-.6a5.73,5.73,0,0,0,1.09-.16,1.45,1.45,0,0,0,.64-.35,1.23,1.23,0,0,0,.3-.65,7.38,7.38,0,0,0,.07-1.09v-5.52H43.9v6.17a3.29,3.29,0,0,0,.06.7.86.86,0,0,0,.28.47,1.49,1.49,0,0,0,.64.27A7.6,7.6,0,0,0,46,117l0,.63h-.67l-.85,0-.92,0H39.78l0-.6a6,6,0,0,0,1.1-.16,1.44,1.44,0,0,0,.64-.35,1.28,1.28,0,0,0,.31-.65,5.87,5.87,0,0,0,.08-1.09V102.92a3,3,0,0,0-.07-.71.87.87,0,0,0-.29-.46,1.44,1.44,0,0,0-.66-.28,9.19,9.19,0,0,0-1.18-.12l0-.64h6.22l.05.6a5.68,5.68,0,0,0-1.09.17,1.44,1.44,0,0,0-.64.35,1.2,1.2,0,0,0-.29.66,6.62,6.62,0,0,0-.07,1.07v4.63Zm16.14,3.16H63.59l-1.36,3.46a5.49,5.49,0,0,0-.35,1.27.64.64,0,0,0,.43.64,5.36,5.36,0,0,0,1.54.23l-.05.63-1.46,0-1.6,0-1.34,0-1.34,0,0-.6a6.66,6.66,0,0,0,1.13-.16,1.74,1.74,0,0,0,.76-.43,3.35,3.35,0,0,0,.62-.84c.19-.36.42-.84.68-1.43l4.87-11.9a6.56,6.56,0,0,1,.45-.92,6.24,6.24,0,0,0,.41-.85l1.1-.14q.2.85.41,1.55c.14.47.28.89.41,1.28l4,11.46a11.75,11.75,0,0,0,.47,1.21,2,2,0,0,0,.49.68,1.6,1.6,0,0,0,.71.32,9.19,9.19,0,0,0,1.12.14l-.05.63-1.63,0-1.78,0-1.49,0-1.49,0-.05-.6a5.19,5.19,0,0,0,1.4-.23.62.62,0,0,0,.43-.62,1.66,1.66,0,0,0-.07-.45c0-.17-.11-.36-.17-.57l-1.25-3.74Zm-5.45-1h5.12l-2.3-7h-.05l-2.76,7Zm19.06-9a6.86,6.86,0,0,0-1.17.17,1.58,1.58,0,0,0-.7.35,1.23,1.23,0,0,0-.33.66,5.31,5.31,0,0,0-.09,1.07v11.16a5,5,0,0,0,.08,1,1.1,1.1,0,0,0,.32.61,1.38,1.38,0,0,0,.67.31,5.94,5.94,0,0,0,1.15.08h.91a7.14,7.14,0,0,0,1.67-.16,2.65,2.65,0,0,0,1.1-.56,3.49,3.49,0,0,0,.78-1q.33-.66.74-1.6l.67.16c-.1.34-.19.71-.26,1.09s-.16.77-.23,1.14-.13.73-.18,1.06-.07.6-.08.81H76.5l-.05-.6a6.91,6.91,0,0,0,1.17-.16,1.59,1.59,0,0,0,.7-.35,1.22,1.22,0,0,0,.33-.65,5.3,5.3,0,0,0,.09-1.09V102.92a2.65,2.65,0,0,0-.08-.71.89.89,0,0,0-.32-.46,1.58,1.58,0,0,0-.68-.28,9.63,9.63,0,0,0-1.21-.12l.05-.64H83l.07.6Zm13.64-.56h7.51c0,.41-.07.79-.1,1.13s-.05.69-.07,1,0,.67,0,1,0,.71,0,1.1l-.67,0a14.76,14.76,0,0,0-.35-1.6,2.75,2.75,0,0,0-.53-1.07,1.94,1.94,0,0,0-.95-.59,5.93,5.93,0,0,0-1.58-.17h-2v13.8a2.88,2.88,0,0,0,.07.7.83.83,0,0,0,.32.47,1.83,1.83,0,0,0,.74.27,10.7,10.7,0,0,0,1.36.13l0,.63H93.48l-.05-.6a8.45,8.45,0,0,0,1.3-.16,1.42,1.42,0,0,0,.74-.35,1.25,1.25,0,0,0,.32-.65,5.88,5.88,0,0,0,.08-1.09V101.6H93.92a6,6,0,0,0-1.59.17,2.07,2.07,0,0,0-1,.59,2.7,2.7,0,0,0-.56,1.07,13.37,13.37,0,0,0-.35,1.6l-.67,0v-1.1c0-.53,0-1,0-1.51s-.05-1-.11-1.66h7Zm13.22,14.61a6,6,0,0,0,0,.71.73.73,0,0,0,.25.48,1.32,1.32,0,0,0,.66.29,6.86,6.86,0,0,0,1.27.12v.63l-1.72,0-1.72,0h-2.89l0-.6a6,6,0,0,0,1.1-.16,1.44,1.44,0,0,0,.64-.35,1.28,1.28,0,0,0,.31-.65,5.88,5.88,0,0,0,.08-1.09V102.92a3,3,0,0,0-.07-.71.87.87,0,0,0-.29-.46,1.44,1.44,0,0,0-.66-.28,9.19,9.19,0,0,0-1.18-.12l0-.64H109a10.19,10.19,0,0,0,1.41-.1,11.62,11.62,0,0,1,1.45-.1,13.21,13.21,0,0,1,2.11.17,6.21,6.21,0,0,1,1.91.64,3.92,3.92,0,0,1,1.38,1.24,3.53,3.53,0,0,1,.53,2,4.6,4.6,0,0,1-.26,1.53,4.53,4.53,0,0,1-.71,1.31,4.94,4.94,0,0,1-1.08,1,5.94,5.94,0,0,1-1.38.73c.38.71.74,1.4,1.11,2.05s.7,1.26,1,1.81.59,1,.85,1.43.46.73.62,1a8.66,8.66,0,0,0,.58.73,1.83,1.83,0,0,0,.53.42,2.36,2.36,0,0,0,.68.22c.26,0,.59.09,1,.13l0,.63-1.38,0-1.64,0h-.53l-.54,0c-.11-.25-.3-.61-.55-1.08s-.53-1-.88-1.66-.71-1.31-1.13-2-.83-1.49-1.28-2.25l-.2-.32a1,1,0,0,0-.25-.23,1.22,1.22,0,0,0-.4-.15,3.17,3.17,0,0,0-.65-.05h-.87l-.48,0v5.59Zm0-6.43.28,0H111a4.84,4.84,0,0,0,3.21-.95,3.79,3.79,0,0,0,1.13-3.07,3.09,3.09,0,0,0-1.08-2.62,4.61,4.61,0,0,0-2.87-.83,2.85,2.85,0,0,0-.85.1.82.82,0,0,0-.45.29,1,1,0,0,0-.17.47,5,5,0,0,0,0,.63v5.95Zm20.68-8.56a10,10,0,0,1,3.52.61,7.72,7.72,0,0,1,2.75,1.73,7.86,7.86,0,0,1,1.79,2.71,9.49,9.49,0,0,1,.64,3.56,9.88,9.88,0,0,1-.64,3.6,8.47,8.47,0,0,1-1.78,2.84,8,8,0,0,1-2.74,1.86,9.13,9.13,0,0,1-3.55.67,9.88,9.88,0,0,1-3.52-.61,7.71,7.71,0,0,1-4.55-4.45,9.44,9.44,0,0,1-.64-3.56,10,10,0,0,1,.64-3.59,8.4,8.4,0,0,1,1.78-2.84A8,8,0,0,1,127,101a9.16,9.16,0,0,1,3.55-.67Zm-.11.95a6.9,6.9,0,0,0-2.33.4,5.08,5.08,0,0,0-2,1.27,6.3,6.3,0,0,0-1.36,2.28,9.91,9.91,0,0,0-.51,3.4,11.78,11.78,0,0,0,.58,4,7.46,7.46,0,0,0,1.49,2.57,5.27,5.27,0,0,0,2.05,1.39,6.66,6.66,0,0,0,2.26.41,6.89,6.89,0,0,0,2.33-.4,5,5,0,0,0,2-1.27,6.37,6.37,0,0,0,1.37-2.27,10.11,10.11,0,0,0,.51-3.4,11.73,11.73,0,0,0-.58-4,7.56,7.56,0,0,0-1.49-2.58,5.32,5.32,0,0,0-2.05-1.39,6.53,6.53,0,0,0-2.26-.41Zm25.45,16.52c-.31-.43-.61-.85-.91-1.25s-.63-.82-1-1.22l-9.41-11.16-.07,0v10.28a6.65,6.65,0,0,0,.1,1.3,1.23,1.23,0,0,0,.36.7,1.44,1.44,0,0,0,.71.32c.3,0,.69.1,1.17.13l0,.63-1.33,0-1.61,0-1.4,0-1.34,0-.05-.6a11.32,11.32,0,0,0,1.16-.16,1.35,1.35,0,0,0,.73-.4,1.82,1.82,0,0,0,.38-.9,9.76,9.76,0,0,0,.11-1.65v-8.81c0-.49,0-.89,0-1.19a5.34,5.34,0,0,0-.08-.75,1.72,1.72,0,0,0-.17-.48,3,3,0,0,0-.28-.41,2.79,2.79,0,0,0-.35-.38,1.56,1.56,0,0,0-.4-.26,1.91,1.91,0,0,0-.56-.16c-.22,0-.5-.07-.82-.09l0-.64h3.62L155.73,114l.05,0V103.82a7.06,7.06,0,0,0-.1-1.29,1.23,1.23,0,0,0-.37-.7,1.38,1.38,0,0,0-.72-.32c-.3-.05-.7-.1-1.18-.13l0-.64,1.34,0,1.61,0h.7l.73,0,.68,0h.57l0,.6a10,10,0,0,0-1.12.17,1.29,1.29,0,0,0-.7.41,1.91,1.91,0,0,0-.36.89,9.84,9.84,0,0,0-.11,1.66v13.22Z"/><path class="cls-1" d="M112.27,132.95a3.1,3.1,0,0,0-.31-1.21,2.62,2.62,0,0,0-.68-.86,2.86,2.86,0,0,0-1-.5,4.34,4.34,0,0,0-1.21-.16,5.4,5.4,0,0,0-2.1.37,3.9,3.9,0,0,0-1.48,1,4.3,4.3,0,0,0-.88,1.6,7.06,7.06,0,0,0-.28,2.06,7.4,7.4,0,0,0,.29,2.12,5,5,0,0,0,.88,1.72,4.15,4.15,0,0,0,1.48,1.16,4.83,4.83,0,0,0,2.09.42l.54,0a5.5,5.5,0,0,0,.78-.13,2.94,2.94,0,0,0,.7-.24.45.45,0,0,0,.3-.39v-2.32a1.41,1.41,0,0,0-.07-.47.64.64,0,0,0-.28-.31,1.78,1.78,0,0,0-.6-.18,9.43,9.43,0,0,0-1-.08l0-.42h4.37l0,.4a2.37,2.37,0,0,0-.55.1.68.68,0,0,0-.34.24,1,1,0,0,0-.16.44,5.56,5.56,0,0,0,0,.71v.75c0,.38,0,.74,0,1.08a5.65,5.65,0,0,0,.07.85c-.64.17-1.28.32-1.94.46a9.77,9.77,0,0,1-1.92.2,7.54,7.54,0,0,1-2.53-.41,5.92,5.92,0,0,1-2-1.16,5.26,5.26,0,0,1-1.3-1.81,5.77,5.77,0,0,1-.47-2.36,6,6,0,0,1,.53-2.62,5.29,5.29,0,0,1,1.46-1.87,6.2,6.2,0,0,1,2.17-1.12,9.4,9.4,0,0,1,2.67-.37c.24,0,.51,0,.8,0s.58.06.87.1l.87.14.78.18c0,.5-.07,1-.08,1.41s0,.91,0,1.41l-.49,0Zm5.62,6.67a4,4,0,0,0,0,.48.49.49,0,0,0,.16.32.88.88,0,0,0,.44.19,4.56,4.56,0,0,0,.85.08v.42h-4.22l0-.4a4,4,0,0,0,.73-.11,1,1,0,0,0,.43-.24.85.85,0,0,0,.2-.43,3.93,3.93,0,0,0,.05-.72v-7.88a2,2,0,0,0,0-.47.58.58,0,0,0-.19-.31,1,1,0,0,0-.44-.18,6.11,6.11,0,0,0-.78-.08l0-.42h2.17a6.79,6.79,0,0,0,.94-.06,7.79,7.79,0,0,1,1-.06,8.78,8.78,0,0,1,1.41.12,4.14,4.14,0,0,1,1.27.42,2.61,2.61,0,0,1,.92.82,2.36,2.36,0,0,1,.35,1.33,3.07,3.07,0,0,1-.17,1,3,3,0,0,1-.48.87,3.3,3.3,0,0,1-.72.69,4,4,0,0,1-.92.49c.25.48.5.93.74,1.37s.47.84.67,1.2.4.68.56,1,.31.49.42.65a5.86,5.86,0,0,0,.39.48,1.22,1.22,0,0,0,.36.28,1.58,1.58,0,0,0,.45.15c.17,0,.39.06.67.08l0,.42H122.7l-.36,0c-.08-.16-.2-.4-.36-.72s-.36-.68-.58-1.1l-.75-1.36q-.41-.74-.85-1.5l-.14-.21a.68.68,0,0,0-.16-.16.81.81,0,0,0-.26-.1,2.1,2.1,0,0,0-.44,0h-.58l-.32,0v3.73Zm0-4.29.19,0h.56a3.23,3.23,0,0,0,2.14-.63,2.52,2.52,0,0,0,.76-2,2.06,2.06,0,0,0-.72-1.75,3.07,3.07,0,0,0-1.92-.55,1.91,1.91,0,0,0-.57.07.55.55,0,0,0-.3.19.65.65,0,0,0-.12.32,3.33,3.33,0,0,0,0,.42v4Zm13.78-5.71a6.66,6.66,0,0,1,2.35.4,5.15,5.15,0,0,1,1.83,1.16A5.24,5.24,0,0,1,137,133a6.33,6.33,0,0,1,.43,2.37,6.58,6.58,0,0,1-.42,2.4,5.64,5.64,0,0,1-1.18,1.89,5.31,5.31,0,0,1-1.83,1.24,6.09,6.09,0,0,1-2.36.45,6.58,6.58,0,0,1-2.34-.4,5.14,5.14,0,0,1-3-3,6.3,6.3,0,0,1-.43-2.37,6.64,6.64,0,0,1,.42-2.4,5.6,5.6,0,0,1,1.18-1.89,5.31,5.31,0,0,1,1.83-1.24,6.11,6.11,0,0,1,2.37-.44Zm-.07.63a4.6,4.6,0,0,0-1.55.26,3.39,3.39,0,0,0-1.31.85,4.2,4.2,0,0,0-.91,1.52,6.6,6.6,0,0,0-.34,2.27,7.86,7.86,0,0,0,.38,2.64,5,5,0,0,0,1,1.72,3.52,3.52,0,0,0,1.37.93,4.45,4.45,0,0,0,1.5.27,4.61,4.61,0,0,0,1.55-.26,3.34,3.34,0,0,0,1.31-.85,4.25,4.25,0,0,0,.91-1.52,6.74,6.74,0,0,0,.34-2.27,7.82,7.82,0,0,0-.39-2.64,5,5,0,0,0-1-1.72,3.55,3.55,0,0,0-1.37-.92,4.36,4.36,0,0,0-1.5-.28Zm10,7a3.4,3.4,0,0,0,.28,1.45,2.77,2.77,0,0,0,.74,1,3.1,3.1,0,0,0,1.05.56,4.07,4.07,0,0,0,1.2.18,3.79,3.79,0,0,0,1.21-.19,2.7,2.7,0,0,0,1-.62,3,3,0,0,0,.71-1.1,4.45,4.45,0,0,0,.26-1.62V132a3.62,3.62,0,0,0-.08-.83.91.91,0,0,0-.28-.49,1.21,1.21,0,0,0-.57-.25,8.4,8.4,0,0,0-.94-.1l0-.42h2.2l1.08,0,.94,0v.4a8.22,8.22,0,0,0-.84.11,1,1,0,0,0-.52.25,1,1,0,0,0-.26.55,5.8,5.8,0,0,0-.07,1v5a4.4,4.4,0,0,1-.39,1.94,3.78,3.78,0,0,1-1,1.31,4,4,0,0,1-1.42.74,5.65,5.65,0,0,1-1.61.23,5.35,5.35,0,0,1-1.55-.22,3.84,3.84,0,0,1-1.31-.68,3.35,3.35,0,0,1-.91-1.15,3.63,3.63,0,0,1-.34-1.63V131.4a1.85,1.85,0,0,0-.05-.48.6.6,0,0,0-.22-.33,1.18,1.18,0,0,0-.48-.21,5.54,5.54,0,0,0-.84-.09l0-.42h4.51l0,.4a5,5,0,0,0-.82.12,1.05,1.05,0,0,0-.49.26.94.94,0,0,0-.24.46,3.33,3.33,0,0,0-.06.72v5.42ZM154,139.61a2.69,2.69,0,0,0,0,.48.5.5,0,0,0,.21.32,1.26,1.26,0,0,0,.54.19,6.44,6.44,0,0,0,1,.08l0,.42h-4.5l0-.4a4,4,0,0,0,.73-.11,1,1,0,0,0,.43-.24.85.85,0,0,0,.2-.43,3.93,3.93,0,0,0,.05-.72v-7.88a2,2,0,0,0,0-.47.58.58,0,0,0-.19-.31,1,1,0,0,0-.44-.18,6.11,6.11,0,0,0-.78-.08l0-.42h2.17c.28,0,.6,0,1-.06a9.65,9.65,0,0,1,1.06-.06,7.55,7.55,0,0,1,1.59.16,3.78,3.78,0,0,1,1.32.54,2.77,2.77,0,0,1,.91,1,3.11,3.11,0,0,1,.34,1.51,3.26,3.26,0,0,1-.36,1.57,3.44,3.44,0,0,1-1,1.12,4.15,4.15,0,0,1-1.31.67,5,5,0,0,1-1.46.22,6.38,6.38,0,0,1-.85-.06,2.84,2.84,0,0,1-.63-.15v3.29Zm0-3.88a3.61,3.61,0,0,0,.57.12,5.09,5.09,0,0,0,.68,0,3.4,3.4,0,0,0,.94-.14,2.3,2.3,0,0,0,.87-.48,2.55,2.55,0,0,0,.65-.88A3.26,3.26,0,0,0,158,133a2.52,2.52,0,0,0-.73-2,3,3,0,0,0-2-.64,3.35,3.35,0,0,0-.64,0,.83.83,0,0,0-.36.15.45.45,0,0,0-.16.26,1.93,1.93,0,0,0,0,.41Z"/><path class="cls-1" d="M23.29,157.85c-31.18-43.35-1.56-96,49.88-99.9C22.6,57.06-11.67,115.21,19.41,158.1,21.75,158,21,157.94,23.29,157.85Z"/><path class="cls-1" d="M56.95,0c8,11.55,5,22.71,2.3,28.52C50,43.72,35.61,47.15,24.28,55,7.57,66.17,4.2,79,1.57,90.47c-3.19,17-.83,24.17,1.05,39.7A110.91,110.91,0,0,1,7.92,91.54c3.61-11.89,11.79-23.19,25-30.84C62.4,44.3,64.32,37.24,66.6,25.93,69,10.95,59.9.54,56.95,0Zm5.34,32.11c-2.55,5.41-5.15,11.12-23.47,21.29-10.3,4.75-19.32,11.92-24.56,19.42-4.46,5.36-10.91,19-11.71,31.48C1.3,91.94,9,75.69,11.44,72.16c4.18-6.22,11-13.19,23.73-19.73,7.16-4,17.51-9.28,24.25-18.72,3-4.48,5.42-11.93,4.81-17.7C65,17.85,65.61,23.27,62.28,32.11Z"/></svg>